<?xml version="1.0" standalone="no"?>
<!DOCTYPE svg PUBLIC "-//W3C//DTD SVG 20010904//EN"
 "http://www.w3.org/TR/2001/REC-SVG-20010904/DTD/svg10.dtd">
<svg version="1.0" xmlns="http://www.w3.org/2000/svg"
 width="329.000000pt" height="329.000000pt" viewBox="0 0 329.000000 329.000000"
 preserveAspectRatio="xMidYMid meet">
<metadata>
Created by potrace 1.11, written by Peter Selinger 2001-2013
</metadata>
<g transform="translate(0.000000,329.000000) scale(0.100000,-0.100000)"
fill="#000000" stroke="none">
<path d="M1575 3240 c3 -5 16 -10 29 -10 12 0 31 -7 42 -16 19 -15 19 -16 -1
-9 -65 23 -99 27 -177 23 -67 -4 -93 -10 -116 -27 -17 -11 -37 -21 -45 -21
-20 0 -31 -17 -15 -23 21 -7 2 -19 -34 -22 -17 -1 -34 -7 -36 -13 -2 -6 -10
-8 -18 -5 -9 3 -14 -1 -14 -11 0 -9 -8 -20 -17 -23 -104 -39 -190 -229 -222
-491 -13 -103 18 -390 48 -449 11 -23 21 -51 21 -62 0 -11 5 -23 10 -26 14 -9
13 -52 -2 -57 -12 -4 -3 -28 11 -28 4 0 11 44 14 98 3 53 13 122 22 152 9 30
20 69 25 85 4 17 7 82 5 145 -2 63 1 122 6 131 5 9 25 34 45 54 36 37 37 38
108 36 39 -2 134 -3 211 -3 132 0 143 2 189 26 27 14 54 26 61 26 6 0 36 15
67 34 72 43 95 49 198 46 80 -1 150 -20 150 -40 0 -5 8 -11 18 -14 24 -8 68
-82 83 -139 6 -26 15 -50 20 -53 5 -3 9 -17 10 -32 0 -15 3 -20 6 -12 2 8 7
22 10 30 4 8 12 -14 19 -50 12 -64 10 -86 -5 -61 -22 35 -28 -131 -10 -252 10
-66 29 -115 29 -74 0 10 8 17 20 17 15 0 20 7 20 27 0 14 3 24 6 20 7 -7 7
-85 0 -152 -6 -48 -5 -47 13 18 29 106 39 106 42 1 1 -38 -3 -79 -9 -89 -22
-38 -54 -150 -59 -206 -3 -31 -2 -88 2 -125 l8 -69 13 64 c14 68 91 232 111
239 7 2 13 -12 16 -40 3 -34 4 -29 5 21 2 59 6 69 44 120 44 58 72 91 148 174
l44 49 7 -27 c7 -25 22 -143 23 -175 0 -8 -57 -72 -126 -142 -119 -119 -127
-125 -131 -100 -3 21 -4 19 -6 -11 -1 -26 -16 -60 -51 -114 -27 -42 -57 -96
-67 -121 -14 -36 -18 -41 -24 -26 -7 18 -7 18 -15 0 -5 -13 -3 -21 4 -24 19
-6 14 -22 -8 -22 -11 0 -20 5 -20 10 0 6 -7 10 -15 10 -9 0 -15 -9 -15 -25 0
-14 -4 -25 -10 -25 -5 0 -10 -7 -10 -15 0 -8 5 -15 10 -15 6 0 10 -4 10 -10 0
-18 -18 -11 -25 10 -7 22 -45 28 -46 8 0 -7 -4 -4 -9 7 -12 27 -13 -1 -1 -41
7 -24 6 -31 -5 -31 -8 0 -15 10 -15 21 -1 18 -2 18 -6 3 -3 -10 1 -24 7 -32
10 -12 9 -16 -4 -21 -9 -3 -14 -10 -11 -14 6 -10 -15 -60 -26 -60 -4 0 -10 6
-12 13 -3 6 -6 0 -6 -15 -1 -15 -6 -30 -12 -33 -5 -4 -14 -18 -20 -32 -5 -13
-13 -21 -19 -18 -5 3 -22 -6 -36 -20 -14 -15 -32 -24 -40 -21 -8 3 -14 1 -14
-5 0 -6 -4 -7 -10 -4 -5 3 -10 1 -10 -4 0 -6 -9 -11 -20 -11 -11 0 -20 -4 -20
-10 0 -6 -9 -6 -22 -2 -13 5 -32 7 -43 5 -42 -6 -70 -11 -75 -13 -12 -5 -56 3
-67 11 -7 7 -13 5 -16 -3 -4 -10 -10 -8 -21 6 -8 10 -20 15 -27 10 -7 -4 -10
-3 -6 3 7 12 -40 36 -54 28 -5 -3 -6 1 -3 10 5 11 0 18 -15 22 -11 3 -18 10
-15 15 4 6 -2 8 -15 3 -28 -9 -27 3 2 14 12 5 24 5 27 0 3 -5 35 -4 70 2 36 6
80 8 98 5 17 -2 32 -1 32 5 0 5 6 9 13 9 20 0 117 94 117 114 0 12 -5 16 -16
12 -9 -3 -25 1 -37 9 -12 8 -35 15 -52 16 l-30 1 35 16 c19 9 46 25 60 35 l25
18 -25 -3 c-14 -2 -28 -6 -31 -11 -3 -4 -23 -1 -45 6 l-39 14 60 10 c33 6 62
8 65 4 9 -11 32 -12 59 -3 20 7 36 5 61 -7 33 -16 35 -19 35 -69 -1 -28 2 -52
5 -52 4 0 15 -8 26 -18 50 -45 51 -45 50 -5 -1 31 -5 38 -26 44 -14 4 -19 7
-12 8 6 1 12 11 12 22 0 18 2 19 15 9 9 -7 19 -10 23 -6 4 4 -3 16 -16 26 -22
18 -22 23 -14 83 4 36 5 73 1 83 -10 27 -47 64 -64 64 -8 0 -15 5 -15 10 0 16
-27 12 -34 -5 -3 -8 -11 -15 -18 -14 -10 0 -10 2 0 6 6 2 12 12 11 21 0 11 -2
12 -6 5 -2 -7 -13 -13 -23 -13 -10 0 -22 -5 -25 -10 -7 -12 -25 -4 -25 11 0 5
8 9 18 10 13 0 12 2 -5 9 -27 11 -28 16 -7 75 22 66 16 87 -30 104 -36 14 -40
13 -52 -4 -11 -15 -17 -16 -26 -7 -7 7 -28 12 -47 12 -20 0 -54 7 -77 16 -40
15 -45 15 -99 -5 l-58 -22 6 31 c6 27 5 29 -12 18 -30 -19 -53 -76 -45 -112 5
-17 8 -34 8 -38 1 -3 4 -9 7 -13 13 -12 -3 -44 -25 -47 -12 -2 -20 -9 -18 -18
3 -12 1 -12 -9 -3 -14 14 -39 4 -76 -30 -26 -23 -32 -5 -7 20 15 15 12 18 -30
37 -33 15 -47 28 -51 48 -4 16 -11 25 -19 22 -8 -3 -18 8 -25 28 -19 51 -79
162 -89 166 -13 4 -36 -54 -27 -68 4 -6 7 -61 7 -121 0 -60 4 -109 9 -109 5 0
9 -7 9 -15 0 -8 -6 -14 -12 -13 -16 4 -15 -62 1 -71 5 -4 9 -21 9 -40 -1 -18
5 -36 12 -41 9 -6 9 -9 0 -15 -9 -6 -9 -10 1 -16 10 -6 10 -9 2 -9 -7 0 -10
-6 -8 -12 3 -7 9 -42 15 -78 5 -36 12 -76 15 -90 2 -14 6 -32 8 -40 1 -8 6
-21 10 -27 5 -7 6 -17 2 -22 -6 -11 14 -201 23 -216 12 -17 30 -139 25 -165
-3 -17 3 -34 19 -51 28 -31 52 -93 38 -97 -15 -5 6 -39 29 -47 10 -3 22 -18
26 -33 4 -15 12 -30 18 -34 9 -6 8 -8 -1 -8 -7 0 -10 -5 -6 -12 19 -30 -257
22 -403 77 -127 48 -161 66 -232 125 -33 27 -67 50 -75 50 -8 0 -24 -9 -35
-21 -11 -12 -24 -18 -30 -14 -6 3 -11 2 -11 -3 0 -5 -10 -13 -22 -19 -23 -10
-23 -10 11 -42 19 -18 40 -30 46 -27 8 3 11 -2 8 -15 -8 -27 -24 -35 -35 -15
-5 9 -18 16 -28 16 -11 0 -20 4 -20 9 0 5 -10 7 -22 4 -18 -4 -20 -2 -8 6 8 5
11 13 7 18 -5 4 -12 1 -17 -7 -11 -19 26 -61 46 -53 8 3 23 -2 34 -12 10 -9
30 -18 44 -19 14 0 26 -5 26 -9 0 -5 12 -7 28 -6 30 4 87 -16 115 -39 9 -8 17
-12 17 -9 0 3 13 1 30 -4 16 -6 28 -15 25 -19 -3 -4 4 -6 14 -3 11 3 34 -2 53
-10 18 -9 42 -18 53 -20 11 -3 -7 -5 -40 -5 -102 -1 -117 -3 -111 -18 3 -8 1
-14 -4 -14 -6 0 -10 7 -10 16 0 11 -5 14 -17 9 -10 -4 -24 -8 -30 -8 -7 0 -13
-5 -13 -10 0 -5 -12 -7 -27 -4 -27 5 -27 5 7 -24 19 -16 53 -41 75 -55 22 -15
52 -35 66 -45 132 -89 481 -210 569 -197 17 3 30 1 30 -4 0 -4 25 -7 55 -5 30
1 55 0 55 -3 0 -3 16 -7 36 -8 24 -2 33 1 29 9 -6 8 -2 8 13 0 30 -16 33 -14
26 14 -5 21 -3 24 10 19 11 -4 15 -13 10 -26 -4 -15 -2 -19 7 -15 8 2 13 9 12
15 -2 8 5 9 20 3 26 -10 136 -4 152 8 5 5 29 12 53 16 49 8 49 9 7 19 -22 5
-26 4 -15 -4 12 -7 8 -10 -17 -10 -20 0 -33 -5 -33 -12 0 -9 -4 -8 -10 2 -15
23 -12 36 8 37 31 2 46 8 61 22 12 11 17 10 28 -5 11 -15 15 -16 26 -4 7 8 8
10 1 7 -7 -4 -14 0 -18 8 -5 13 10 20 37 16 23 -4 -1 17 -45 39 -46 23 -49 25
-27 31 24 7 24 7 -3 8 -17 1 -28 -5 -31 -16 -4 -15 -5 -15 -6 -2 -1 11 -11 16
-32 17 -45 1 -49 12 -6 13 21 1 40 2 45 3 4 1 27 6 52 10 148 25 324 140 251
164 -9 3 -11 0 -7 -7 10 -16 -12 -41 -36 -41 -10 0 -17 -4 -14 -8 2 -4 -3 -13
-13 -19 -14 -9 -20 -7 -29 8 -8 12 -8 19 -2 19 5 0 10 -4 10 -10 0 -5 4 -10
10 -10 5 0 8 10 6 23 -2 15 -9 21 -22 19 -18 -3 -18 -3 1 12 18 14 18 15 2 16
-16 0 -16 1 0 18 10 11 21 17 24 16 8 -4 34 44 27 51 -3 3 -15 -4 -28 -15 -13
-11 -29 -20 -37 -20 -7 0 -13 -4 -13 -8 0 -5 -24 -15 -52 -23 -68 -18 -405
-16 -463 3 -38 13 -60 38 -33 38 7 0 19 9 26 20 7 11 21 20 31 20 11 0 23 5
27 11 4 7 9 7 13 1 3 -5 30 2 66 18 33 15 79 33 102 40 35 11 42 18 47 44 3
17 1 51 -4 76 -7 40 -5 51 28 115 39 76 55 100 110 160 21 22 55 67 77 99 38
56 40 58 43 31 2 -16 -4 -79 -13 -141 -10 -62 -15 -120 -12 -128 5 -13 84 -60
197 -117 30 -15 100 -40 155 -55 101 -29 207 -37 345 -27 50 4 57 8 78 39 12
19 20 39 17 44 -6 9 -16 73 -19 114 -1 23 26 41 48 33 9 -4 16 -15 16 -26 0
-34 17 -32 39 4 27 47 80 178 96 240 47 177 47 177 36 253 -14 93 -14 89 9 95
29 8 24 27 -7 27 -29 0 -22 15 12 23 11 3 -41 5 -115 6 -123 0 -137 -1 -160
-20 -16 -14 -19 -19 -7 -15 28 9 19 -14 -10 -27 -16 -7 -40 -20 -55 -30 -15
-11 -33 -17 -40 -14 -7 3 3 12 23 20 19 9 42 24 50 34 11 13 5 12 -26 -6 -22
-13 -54 -32 -72 -42 -17 -10 -56 -34 -87 -54 -30 -21 -60 -34 -65 -30 -6 3
-11 0 -11 -8 0 -19 -23 -38 -49 -40 -12 -1 -21 -7 -21 -14 0 -18 -30 -63 -41
-63 -5 0 -9 6 -9 14 0 8 -7 22 -16 30 -24 25 -10 105 28 158 37 52 79 98 89
98 4 0 10 -10 12 -22 3 -14 5 -7 6 17 2 36 9 45 69 96 37 31 100 80 140 109
l73 53 117 -2 c64 -2 129 -4 145 -6 24 -3 27 0 26 23 -2 57 -13 77 -44 77 -20
0 -29 5 -31 19 -2 11 -6 31 -9 44 -5 22 -3 24 19 20 15 -3 26 -1 26 3 0 5 -11
9 -25 9 -27 0 -34 14 -11 23 8 3 17 1 20 -6 2 -7 5 -4 5 5 2 39 -110 289 -162
365 -20 28 -35 40 -46 36 -14 -4 -14 -3 -1 6 12 8 11 13 -8 34 -12 13 -22 27
-22 33 0 5 -18 29 -40 54 -26 30 -39 39 -40 28 0 -9 -28 -54 -63 -100 -92
-121 -169 -234 -208 -305 -18 -34 -35 -61 -37 -59 -3 4 -6 22 -17 98 -6 43 -2
56 44 145 28 54 82 147 121 206 38 59 70 112 70 116 0 5 -7 14 -15 21 -13 11
-19 9 -33 -11 l-17 -24 -6 30 c-6 26 -7 23 -8 -16 -1 -34 -7 -53 -25 -72 -13
-14 -22 -28 -19 -31 3 -2 -2 -14 -10 -26 -14 -21 -15 -21 -21 -3 -8 26 -1 82
13 96 8 8 11 3 12 -19 1 -20 4 -13 10 21 4 28 11 66 15 85 8 45 -6 32 -41 -37
-14 -29 -29 -55 -34 -57 -12 -8 -20 146 -9 168 12 22 -2 39 -25 30 -11 -4 -17
-17 -17 -35 0 -19 -5 -29 -15 -29 -10 0 -15 -10 -15 -34 0 -19 -4 -38 -10 -41
-5 -3 -10 -17 -10 -31 0 -13 -4 -24 -10 -24 -5 0 -10 -18 -10 -39 0 -37 -18
-69 -22 -39 0 7 -2 18 -2 23 -1 6 -4 15 -7 20 -10 15 -22 103 -24 165 -1 32
-11 74 -23 101 -12 25 -19 54 -16 66 6 23 -13 66 -46 101 -18 19 -24 21 -31
10 -7 -10 -19 -2 -51 32 -51 54 -104 93 -117 86 -5 -3 -21 6 -37 19 -43 38
-46 40 -100 70 -97 56 -122 66 -210 80 -107 18 -107 18 -99 5z m115 -45 c11
-13 10 -14 -4 -9 -9 3 -16 10 -16 15 0 13 6 11 20 -6z m-317 -12 c-7 -2 -19
-2 -25 0 -7 3 -2 5 12 5 14 0 19 -2 13 -5z m287 -2 c0 -5 -9 -7 -20 -4 -11 3
-20 7 -20 9 0 2 9 4 20 4 11 0 20 -4 20 -9z m-283 -37 c-3 -3 -12 -4 -19 -1
-8 3 -5 6 6 6 11 1 17 -2 13 -5z m43 -4 c0 -5 -4 -10 -9 -10 -6 0 -13 5 -16
10 -3 6 1 10 9 10 9 0 16 -4 16 -10z m47 4 c-3 -3 -12 -4 -19 -1 -8 3 -5 6 6
6 11 1 17 -2 13 -5z m79 -39 c30 -16 25 -19 -13 -9 -13 4 -23 10 -23 15 0 12
3 11 36 -6z m734 -420 c0 -8 -2 -15 -4 -15 -2 0 -6 7 -10 15 -3 8 -1 15 4 15
6 0 10 -7 10 -15z m179 -118 c1 -21 7 -50 15 -65 25 -49 30 -98 11 -124 -16
-22 -16 -21 -13 39 2 34 0 64 -3 67 -10 10 -32 -51 -23 -65 4 -7 3 -10 -3 -6
-13 8 -81 -176 -90 -240 -3 -24 -9 -43 -13 -43 -3 0 -3 24 1 53 4 28 8 86 8
127 1 42 5 80 9 85 5 6 14 30 21 55 7 25 24 78 38 119 28 78 41 78 42 -2z m0
-224 c1 -12 -3 -25 -9 -28 -6 -4 -10 12 -9 42 0 36 3 43 9 28 5 -11 9 -30 9
-42z m324 -6 c3 -26 1 -47 -4 -47 -11 0 -22 38 -14 50 3 5 1 10 -4 10 -6 0
-11 -18 -11 -41 0 -35 -8 -49 -52 -101 l-53 -60 -7 38 c-4 26 -1 50 9 71 15
32 33 36 33 7 0 -8 5 -14 10 -14 7 0 8 13 4 34 -7 42 16 81 49 81 15 0 22 6
20 19 0 10 3 14 8 9 4 -4 10 -30 12 -56z m50 16 c-7 -2 -19 -2 -25 0 -7 3 -2
5 12 5 14 0 19 -2 13 -5z m-4 -46 c0 -21 -1 -21 -9 -2 -12 28 -12 37 0 30 6
-3 10 -16 9 -28z m-402 -39 c-2 -13 -4 -3 -4 22 0 25 2 35 4 23 2 -13 2 -33 0
-45z m-17 -2 c0 -3 -4 -8 -10 -11 -5 -3 -10 -1 -10 4 0 6 5 11 10 11 6 0 10
-2 10 -4z m-3 -58 c-3 -7 -5 -2 -5 12 0 14 2 19 5 13 2 -7 2 -19 0 -25z m216
-33 c6 -52 -11 -94 -32 -80 -6 3 -11 -1 -11 -10 0 -9 -5 -26 -11 -37 -9 -17
-13 -18 -20 -7 -14 22 -10 82 6 103 14 18 15 18 15 2 0 -9 5 -14 10 -11 6 3
10 19 10 36 0 16 5 29 10 29 6 0 10 8 10 17 0 32 8 8 13 -42z m256 -7 c0 -28
-2 -30 -9 -13 -12 28 -12 45 0 45 6 0 10 -15 9 -32z m-347 -120 c3 -29 0 -49
-10 -61 -17 -19 -36 -51 -51 -84 -16 -35 -21 -28 -21 30 1 50 1 51 15 27 13
-24 13 -23 8 16 -3 25 -1 44 6 48 6 4 11 2 11 -3 0 -6 5 -11 10 -11 6 0 10 18
10 40 0 53 17 51 22 -2z m470 -140 c-8 -8 -20 -8 -44 -1 l-33 11 45 1 c33 1
41 -2 32 -11z m-565 -50 c-2 -13 -4 -5 -4 17 -1 22 1 32 4 23 2 -10 2 -28 0
-40z m363 37 c0 -8 3 -15 8 -15 14 0 0 -104 -17 -117 -25 -19 -30 -16 -36 25
-4 20 -9 44 -11 53 -3 9 6 28 18 43 26 29 38 33 38 11z m211 -18 c-1 -4 -3 -7
-6 -7 -3 0 -15 0 -27 1 -22 0 -22 1 -3 9 22 9 37 8 36 -3z m-594 -59 c-3 -7
-5 -2 -5 12 0 14 2 19 5 13 2 -7 2 -19 0 -25z m322 -53 c1 -30 -4 -43 -19 -52
-23 -15 -27 -10 -34 47 -4 37 -1 49 17 68 l22 24 6 -24 c4 -13 7 -41 8 -63z
m281 74 c0 -5 -26 -9 -57 -10 -32 0 -52 -3 -45 -6 19 -7 4 -23 -24 -23 -18 0
-24 5 -24 23 0 21 4 23 75 24 41 0 75 -3 75 -8z m-163 -25 c-3 -3 -12 -4 -19
-1 -8 3 -5 6 6 6 11 1 17 -2 13 -5z m156 -1 c-7 -2 -21 -2 -30 0 -10 3 -4 5
12 5 17 0 24 -2 18 -5z m-339 -74 c7 -51 6 -53 -34 -91 -23 -22 -45 -36 -52
-32 -7 4 -8 3 -4 -4 4 -6 -17 -35 -49 -67 -30 -31 -55 -58 -55 -60 0 -10 -62
-95 -69 -95 -10 0 5 83 22 123 7 15 15 27 19 27 5 0 8 7 8 16 0 8 5 12 10 9 6
-3 10 0 10 7 0 8 13 28 30 46 16 18 35 42 41 53 6 12 13 18 16 15 4 -3 11 4
17 16 19 37 36 34 36 -8 0 -20 3 -34 7 -30 4 4 6 27 4 52 -2 41 10 74 29 74 4
0 10 -23 14 -51z m-777 -161 c-3 -7 -5 -2 -5 12 0 14 2 19 5 13 2 -7 2 -19 0
-25z m663 -41 c0 -2 -10 -12 -22 -23 l-23 -19 19 23 c18 21 26 27 26 19z
m-640 -40 c12 -19 10 -20 -48 -14 -32 4 -73 2 -91 -3 -20 -5 -31 -5 -31 1 0
16 54 34 107 35 40 1 53 -3 63 -19z m1154 -46 c4 -6 -34 -11 -99 -13 -96 -3
-114 0 -100 14 10 9 193 9 199 -1z m-152 -73 l1 -33 4 33 4 32 74 0 c46 0 77
-4 81 -12 4 -6 2 -14 -5 -16 -9 -3 -10 -7 -3 -11 6 -4 14 -26 18 -49 l7 -42
-82 0 c-77 0 -81 1 -82 23 -1 20 -2 20 -6 2 -8 -31 -19 -38 -37 -20 -15 15
-16 15 -16 -3 0 -11 -11 -24 -26 -31 -31 -14 -30 -15 -42 29 l-10 35 -1 -46
c-1 -45 -12 -58 -52 -59 -3 0 -6 23 -8 52 -1 28 -4 55 -7 59 -4 8 34 39 48 39
5 0 8 -9 8 -20 0 -11 5 -20 10 -20 6 0 8 10 5 23 -7 27 9 44 52 57 53 16 63
13 65 -22z m-212 -38 c-24 -15 -37 -11 -16 5 11 8 22 12 25 9 3 -3 -1 -9 -9
-14z m-352 -23 c2 -15 1 -27 -2 -27 -18 0 -36 15 -36 29 0 41 33 39 38 -2z
m302 -6 c0 -5 -10 -11 -22 -14 -22 -6 -22 -6 -4 8 23 17 26 18 26 6z m72 -52
c2 -49 0 -63 -14 -70 -12 -7 -20 -4 -27 8 -9 16 -10 16 -11 -5 0 -27 -28 -41
-41 -21 -7 11 -9 9 -9 -8 0 -14 -11 -27 -32 -37 -39 -20 -48 -10 -48 56 0 38
4 48 20 53 11 3 20 11 20 16 0 5 9 9 19 9 10 0 21 7 25 15 3 8 13 15 21 15 9
0 23 7 31 15 30 30 42 18 46 -46z m-427 41 c3 -5 1 -10 -4 -10 -6 0 -11 5 -11
10 0 6 2 10 4 10 3 0 8 -4 11 -10z m305 -20 c0 -5 -5 -10 -11 -10 -5 0 -7 5
-4 10 3 6 8 10 11 10 2 0 4 -4 4 -10z m-321 -26 c-15 -18 -22 -13 -13 10 3 9
10 13 16 10 5 -3 4 -12 -3 -20z m55 1 c10 -8 23 -12 29 -8 6 4 7 -4 3 -20 -5
-20 -2 -30 14 -39 24 -15 27 -38 4 -38 -8 0 -12 -4 -9 -10 3 -5 1 -10 -4 -10
-6 0 -11 5 -11 10 0 6 -7 10 -15 10 -8 0 -15 5 -15 10 0 6 -9 10 -20 10 -11 0
-20 5 -20 10 0 6 -5 10 -12 10 -6 0 -4 -7 5 -18 10 -10 17 -27 17 -38 0 -11 4
-24 10 -30 13 -13 0 -27 -39 -41 -23 -9 -38 -9 -46 -3 -7 6 -19 8 -28 4 -24
-9 -30 13 -13 48 9 17 14 40 10 50 -3 10 -1 19 5 19 6 1 16 3 21 4 6 1 14 3
19 4 5 0 12 11 15 24 6 20 7 21 20 5 10 -13 15 -15 24 -6 17 17 15 31 -3 24
-12 -4 -13 -2 -2 14 14 24 16 24 41 5z m-94 -34 c0 -15 -33 -22 -44 -10 -8 9
-7 10 7 6 9 -4 17 -2 17 3 0 6 5 10 10 10 6 0 10 -4 10 -9z m290 -31 c0 -5 -5
-10 -11 -10 -5 0 -7 5 -4 10 3 6 8 10 11 10 2 0 4 -4 4 -10z m-9 -43 c-10 -9
-11 -8 -5 6 3 10 9 15 12 12 3 -3 0 -11 -7 -18z m355 -63 c6 -43 14 -102 18
-131 l6 -52 -77 -16 c-43 -10 -113 -26 -156 -37 -43 -11 -80 -18 -82 -16 -5 5
-14 68 -21 145 -7 70 -6 73 17 82 13 5 78 32 144 60 66 27 125 49 130 47 6 -1
15 -38 21 -82z m-414 26 c-3 -18 0 -30 7 -30 6 0 11 -7 11 -15 0 -8 -2 -15 -4
-15 -2 0 -11 -2 -19 -5 -10 -5 -14 4 -15 36 -2 42 3 59 17 59 4 0 6 -13 3 -30z
m-2 -94 c0 -2 -8 -10 -17 -17 -16 -13 -17 -12 -4 4 13 16 21 21 21 13z m-185
-25 c3 -5 1 -12 -5 -16 -5 -3 -10 1 -10 9 0 18 6 21 15 7z m201 -17 c-3 -8 -2
-12 4 -9 11 7 40 -18 40 -34 0 -15 -17 -14 -24 2 -3 6 -4 -7 -1 -30 3 -28 1
-43 -6 -43 -6 0 -9 6 -6 13 2 6 -4 23 -14 36 -27 34 -25 81 4 81 5 0 6 -7 3
-16z m-229 -32 c18 -12 5 -48 -23 -61 -21 -9 -24 -8 -24 9 0 11 5 20 11 20 6
0 8 9 4 20 -7 21 9 27 32 12z m113 -12 c0 -5 -7 -10 -16 -10 -8 0 -12 5 -9 10
3 6 10 10 16 10 5 0 9 -4 9 -10z m485 -132 c19 -117 20 -108 -13 -108 -29 0
-30 2 -36 54 -6 43 -11 54 -22 49 -10 -3 -13 -12 -8 -22 4 -9 9 -33 12 -54 4
-36 3 -38 -19 -35 -19 2 -24 9 -24 31 1 15 -3 27 -8 27 -5 0 -7 9 -4 20 3 11
1 20 -4 20 -5 0 -9 -9 -9 -20 0 -11 -7 -20 -15 -20 -8 0 -15 6 -15 13 0 6 -3
22 -6 35 -5 18 -2 22 15 22 11 0 21 -6 21 -12 1 -8 7 -5 15 6 10 13 21 17 39
12 15 -3 26 -2 26 3 0 8 14 15 41 20 4 0 10 -18 14 -41z m-187 -38 c-2 -22 -1
-40 3 -40 4 0 7 -11 7 -25 0 -17 -6 -25 -17 -25 -12 0 -17 8 -16 28 1 15 -2
38 -5 52 -9 32 -2 50 17 50 12 0 14 -9 11 -40z m-48 10 c0 -11 -4 -20 -10 -20
-5 0 -10 9 -10 20 0 11 5 20 10 20 6 0 10 -9 10 -20z m-95 -30 c3 -5 1 -10 -4
-10 -6 0 -11 5 -11 10 0 6 2 10 4 10 3 0 8 -4 11 -10z m99 -22 c9 -35 7 -48
-7 -48 -8 0 -14 14 -15 35 -3 39 12 48 22 13z m106 -19 c0 -20 -24 -26 -35 -9
-4 6 -4 17 -1 25 7 20 36 7 36 -16z m-140 -21 c0 -19 -2 -20 -10 -8 -13 19
-13 30 0 30 6 0 10 -10 10 -22z m110 -24 c-37 -8 -88 -9 -84 -2 3 4 26 7 52 7
26 -1 40 -3 32 -5z m-2027 -140 c15 -6 25 -24 12 -24 -13 0 -55 25 -55 32 0 6
6 7 13 4 6 -3 20 -9 30 -12z m130 -178 c4 -10 1 -13 -8 -9 -8 3 -12 9 -9 14 7
12 11 11 17 -5z m37 -16 c0 -5 -4 -10 -10 -10 -5 0 -10 5 -10 10 0 6 5 10 10
10 6 0 10 -4 10 -10z m1140 -170 c0 -5 -2 -10 -4 -10 -3 0 -8 5 -11 10 -3 6
-1 10 4 10 6 0 11 -4 11 -10z m-120 -72 c0 -5 -9 -8 -20 -8 -11 0 -20 5 -20
11 0 5 5 7 10 4 6 -3 10 2 10 12 0 15 2 16 10 3 5 -8 10 -18 10 -22z m30 22
c0 -5 -4 -10 -10 -10 -5 0 -10 5 -10 10 0 6 5 10 10 10 6 0 10 -4 10 -10z m47
4 c-3 -3 -12 -4 -19 -1 -8 3 -5 6 6 6 11 1 17 -2 13 -5z m-154 -71 c-7 -2 -19
-2 -25 0 -7 3 -2 5 12 5 14 0 19 -2 13 -5z"/>
<path d="M2871 1364 c0 -11 3 -14 6 -6 3 7 2 16 -1 19 -3 4 -6 -2 -5 -13z"/>
<path d="M2671 1264 c0 -11 3 -14 6 -6 3 7 2 16 -1 19 -3 4 -6 -2 -5 -13z"/>
<path d="M2582 1185 c0 -16 2 -22 5 -12 2 9 2 23 0 30 -3 6 -5 -1 -5 -18z"/>
<path d="M2297 2818 c-2 -7 1 -24 8 -38 18 -36 33 -71 41 -100 8 -25 9 -33 12
-57 3 -24 22 -13 22 11 0 14 7 32 15 40 9 9 15 21 14 28 -4 34 2 47 19 42 25
-8 -37 44 -80 67 -44 23 -45 23 -51 7z"/>
<path d="M2570 2644 c0 -8 5 -12 10 -9 6 4 8 11 5 16 -9 14 -15 11 -15 -7z"/>
<path d="M2696 2423 c-6 -14 -5 -15 5 -6 7 7 10 15 7 18 -3 3 -9 -2 -12 -12z"/>
<path d="M1717 2383 c-4 -3 -7 -18 -7 -32 0 -30 25 -56 53 -56 24 0 49 -68 41
-111 -4 -21 1 -48 14 -77 20 -44 24 -47 92 -68 40 -12 80 -18 93 -15 12 4 42
9 67 12 25 3 47 10 50 14 10 16 55 27 80 20 44 -12 52 6 23 58 -14 26 -30 53
-36 60 -6 8 -5 12 4 12 20 0 34 -12 44 -35 8 -17 9 -16 13 12 4 43 -10 67 -55
88 -21 10 -41 22 -44 27 -3 5 -19 10 -35 13 -76 11 -111 19 -128 28 -10 5 -61
9 -112 9 -87 -1 -93 1 -109 24 -15 23 -35 31 -48 17z"/>
<path d="M1496 2364 c-21 -8 -73 -13 -120 -13 -102 0 -135 -10 -195 -60 -52
-44 -56 -54 -67 -175 -6 -64 -5 -70 16 -86 18 -14 30 -16 54 -9 40 12 116 1
116 -16 0 -7 6 -15 13 -18 16 -6 115 8 151 22 16 7 36 9 43 7 8 -3 23 0 34 7
23 14 39 -2 39 -40 0 -16 6 -23 19 -23 21 0 47 59 38 84 -3 7 1 37 9 67 9 33
13 81 10 126 -4 75 -10 93 -28 93 -7 0 -21 8 -32 19 -30 27 -56 31 -100 15z"/>
<path d="M1000 2045 c-13 -16 -10 -50 4 -50 6 0 11 15 13 33 5 36 1 39 -17 17z"/>
<path d="M2340 2041 c-6 -11 -6 -22 -1 -25 5 -3 11 5 13 19 6 30 2 32 -12 6z"/>
<path d="M993 1934 c-25 -38 -4 -187 28 -205 11 -5 19 -15 19 -22 0 -13 50
-40 58 -32 3 3 0 5 -6 5 -6 0 -9 7 -6 15 4 8 2 21 -4 28 -6 6 -10 23 -10 37 0
45 -15 105 -29 113 -11 7 -11 12 -2 23 15 18 4 61 -17 61 -8 0 -23 -11 -31
-23z m47 -164 c0 -11 -4 -20 -10 -20 -5 0 -10 9 -10 20 0 11 5 20 10 20 6 0
10 -9 10 -20z"/>
<path d="M1572 1903 c-18 -20 -32 -38 -32 -40 0 -8 34 -2 60 12 32 17 38 36
17 53 -9 8 -21 2 -45 -25z"/>
<path d="M2315 1908 c-4 -14 -5 -37 -3 -49 3 -23 5 -22 22 10 16 30 16 35 2
49 -13 14 -15 13 -21 -10z"/>
<path d="M3075 1860 c3 -5 8 -10 11 -10 2 0 4 5 4 10 0 6 -5 10 -11 10 -5 0
-7 -4 -4 -10z"/>
<path d="M3068 1823 c6 -2 18 -2 25 0 6 3 1 5 -13 5 -14 0 -19 -2 -12 -5z"/>
<path d="M2295 1729 c-4 -6 -5 -12 -2 -15 2 -3 7 2 10 11 7 17 1 20 -8 4z"/>
<path d="M2172 1420 c0 -14 2 -19 5 -12 2 6 2 18 0 25 -3 6 -5 1 -5 -13z"/>
<path d="M2140 1400 c0 -5 5 -10 10 -10 6 0 10 5 10 10 0 6 -4 10 -10 10 -5 0
-10 -4 -10 -10z"/>
<path d="M2471 1334 c0 -11 3 -14 6 -6 3 7 2 16 -1 19 -3 4 -6 -2 -5 -13z"/>
<path d="M2052 1230 c0 -14 2 -19 5 -12 2 6 2 18 0 25 -3 6 -5 1 -5 -13z"/>
<path d="M2080 1166 c0 -8 -3 -23 -7 -33 -6 -16 -5 -16 10 -4 18 15 23 51 7
51 -5 0 -10 -6 -10 -14z"/>
<path d="M666 725 c4 -8 12 -15 19 -15 7 0 18 7 25 15 11 13 8 15 -18 15 -24
0 -30 -4 -26 -15z"/>
<path d="M460 668 l-23 -31 41 6 c41 7 102 36 102 50 0 11 -15 8 -28 -5 -9 -9
-15 -9 -24 0 -20 20 -43 14 -68 -20z"/>
<path d="M2707 581 l-57 -6 60 -29 c59 -29 60 -29 81 -10 11 10 25 27 30 36
11 20 2 21 -114 9z"/>
<path d="M2196 502 c-2 -4 -1 -14 5 -22 7 -12 9 -10 9 8 0 23 -5 28 -14 14z"/>
<path d="M2201 424 c0 -11 3 -14 6 -6 3 7 2 16 -1 19 -3 4 -6 -2 -5 -13z"/>
<path d="M2271 404 c0 -11 3 -14 6 -6 3 7 2 16 -1 19 -3 4 -6 -2 -5 -13z"/>
<path d="M2060 140 c0 -5 5 -10 11 -10 5 0 7 5 4 10 -3 6 -8 10 -11 10 -2 0
-4 -4 -4 -10z"/>
</g>
</svg>
